<svg xmlns="http://www.w3.org/2000/svg" viewBox="0 0 927 927">
<style>
        *{
            fill:#fff;
        }
        @-webkit-keyframes rotating {
            from {
                -webkit-transform: rotate(0deg);
                transform: rotate(0deg);
            }
            to {
                -webkit-transform: rotate(360deg);
                transform: rotate(360deg);
            }
        }
        @keyframes rotating {
            from {
                -webkit-transform: rotate(0deg);
                transform: rotate(0deg);
            }
            to {
                -webkit-transform: rotate(360deg);
                transform: rotate(360deg);
            }
        }
        .rect,.dots,.arcs{
            -webkit-animation: rotating 150s linear infinite;
            animation: rotating 150s linear infinite;
            -webkit-transform-origin:center;
            -ms-transform-origin:center;
            transform-origin:center;
        }
        .rect{
            -webkit-animation-duration: 300s;
            animation-duration: 300s;
        }
        .arcs {
            animation-direction: reverse;
            -webkit-animation-duration: 70s;
            animation-duration: 70s;
        }
        .dots{
            -webkit-animation-duration: 150s;
            animation-duration: 150s;
        }
    </style>
    <g class="all-container">
        <g class="rect">
            <path d="M462.75 0h1v15h-1zM414.31 2.617l.994-.104 1.568 14.918-.995.104zM366.403 10.29l.978-.208 3.119 14.672-.979.208zM319.56 22.927l.95-.31 4.636 14.266-.951.31zM274.29 40.375l.914-.406 6.101 13.703-.914.406zM231.095 62.478l.866-.5 7.5 12.99-.866.5zM190.46 88.966l.81-.588 8.816 12.135-.809.588zM152.799 119.548l.743-.669 10.037 11.147-.743.67zM118.555 153.919l.669-.744 11.147 10.037-.669.744zM88.073 191.673l.588-.81 12.135 8.817-.587.81zM61.72 232.391l.5-.866 12.991 7.5-.5.866zM39.776 275.663l.406-.913 13.704 6.101-.407.914zM22.452 320.993l.31-.95 14.265 4.635-.309.95zM9.977 367.867l.208-.978 14.673 3.119-.208.978zM2.46 415.801l.105-.994 14.918 1.568-.105.994zM0 463.25h15v1H0zM2.512 511.708l14.918-1.568.104.994-14.918 1.568zM10.066 559.624l14.673-3.119.208.979-14.673 3.118zM22.607 606.492l14.266-4.635.309.95-14.266 4.636zM39.963 651.793l13.704-6.101.406.913-13.703 6.101zM61.978 695.034l12.99-7.5.5.866-12.99 7.5zM88.367 735.735l12.135-8.817.588.81-12.135 8.816zM118.883 773.453l11.147-10.037.67.743-11.148 10.037zM153.17 807.78l10.038-11.147.743.669-10.037 11.147zM190.87 838.332l8.817-12.135.809.587-8.817 12.136zM231.53 864.784l7.5-12.99.865.5-7.5 12.99zM274.752 886.826l6.1-13.704.914.407-6.1 13.703zM320.03 904.234l4.634-14.266.951.309-4.635 14.266zM366.89 916.819l3.118-14.673.979.208-3.12 14.672zM414.807 924.442l1.568-14.918.995.104-1.568 14.918zM463.25 912h1v15h-1zM510.127 909.563l.994-.104 1.568 14.917-.994.105zM556.507 902.242l.978-.208 3.12 14.673-.98.208zM601.855 890.137l.951-.31 4.636 14.267-.951.309zM645.692 873.32l.914-.406 6.101 13.703-.913.407zM687.525 852.032l.866-.5 7.5 12.99-.866.5zM726.933 826.49l.81-.587 8.816 12.135-.809.588zM763.424 796.957l.743-.669 10.037 11.147-.743.67zM796.63 763.79l.67-.743 11.147 10.036-.67.744zM822.637 726.876l.59-.809 12.148 8.85-.589.808zM851.786 687.964l.5-.866 12.99 7.5-.5.866zM873.124 646.149l.407-.914 13.703 6.102-.407.913zM889.971 602.332l.309-.951 14.266 4.635-.31.951zM902.15 556.996l.207-.978 14.672 3.118-.208.978zM909.505 510.633l.104-.995 14.918 1.568-.105.994zM912 462.75h15v1h-15zM909.466 415.88l14.918-1.568.105.994-14.918 1.568zM902.04 369.517l14.673-3.118.208.978-14.672 3.118zM889.817 324.196l14.266-4.635.309.95-14.266 4.636zM872.91 280.4l13.702-6.1.407.913-13.703 6.101zM851.546 238.6l12.99-7.5.5.866-12.99 7.5zM828.461 201.025l12.149-8.85.589.809-12.15 8.85zM796.307 162.85l11.147-10.038.669.743-11.147 10.037zM763.048 129.697l10.037-11.147.744.669-10.037 11.147zM726.516 100.216l8.816-12.135.81.587-8.817 12.136zM687.094 74.714l7.5-12.99.866.5-7.5 12.99zM645.231 53.468l6.101-13.703.914.407-6.101 13.703zM601.38 36.709l4.635-14.266.951.309-4.635 14.266zM556.008 24.637l3.119-14.672.978.208-3.119 14.672zM509.64 17.378l1.568-14.918.994.104-1.568 14.918z"/>
        </g>
        <g class="dots">
            <circle cx="463.25" cy="113" r="3"/>
            <circle cx="426.61" cy="114.95" r="1"/>
            <circle cx="390.38" cy="120.71" r="1"/>
            <circle cx="354.95" cy="130.23" r="1"/>
            <circle cx="320.71" cy="143.4" r="1"/>
            <circle cx="288.03" cy="160.08" r="1"/>
            <circle cx="257.28" cy="180.09" r="1"/>
            <circle cx="228.78" cy="203.2" r="1"/>
            <circle cx="202.86" cy="229.16" r="1"/>
            <circle cx="179.79" cy="257.68" r="3.43"/>
            <circle cx="159.83" cy="288.47" r="1"/>
            <circle cx="143.2" cy="321.17" r="1"/>
            <circle cx="130.08" cy="355.43" r="1"/>
            <circle cx="120.61" cy="390.87" r="1"/>
            <circle cx="114.89" cy="427.11" r="1"/>
            <circle cx="113" cy="463.75" r="1"/>
            <circle cx="114.95" cy="500.39" r="1"/>
            <circle cx="120.71" cy="536.62" r="1"/>
            <circle cx="130.23" cy="572.05" r="1"/>
            <circle cx="143.4" cy="606.29" r="1"/>
            <circle cx="160.08" cy="638.97" r="1"/>
            <circle cx="180.09" cy="669.72" r="1"/>
            <circle cx="203.2" cy="698.22" r="1"/>
            <circle cx="229.16" cy="724.14" r="1"/>
            <circle cx="257.68" cy="747.21" r="1"/>
            <circle cx="288.47" cy="767.17" r="5.08"/>
            <circle cx="321.17" cy="783.8" r="1"/>
            <circle cx="355.43" cy="796.92" r="1"/>
            <circle cx="390.87" cy="806.39" r="1"/>
            <circle cx="427.11" cy="812.11" r="1"/>
            <circle cx="463.75" cy="814" r="1"/>
            <circle cx="500.39" cy="812.05" r="1"/>
            <circle cx="536.62" cy="806.29" r="1"/>
            <circle cx="572.05" cy="796.77" r="1"/>
            <circle cx="606.29" cy="783.6" r="1"/>
            <circle cx="638.97" cy="766.92" r="1"/>
            <circle cx="669.72" cy="746.91" r="1"/>
            <circle cx="698.22" cy="723.8" r="1"/>
            <circle cx="724.14" cy="697.84" r="1"/>
            <circle cx="747.21" cy="669.32" r="1"/>
            <circle cx="767.17" cy="638.53" r="1"/>
            <circle cx="783.8" cy="605.83" r="1"/>
            <circle cx="796.92" cy="571.57" r="5.33"/>
            <circle cx="806.39" cy="536.13" r="1"/>
            <circle cx="812.11" cy="499.89" r="1"/>
            <circle cx="814" cy="463.25" r="1"/>
            <circle cx="812.05" cy="426.61" r="1"/>
            <circle cx="806.29" cy="390.38" r="1"/>
            <circle cx="796.77" cy="354.95" r="1"/>
            <circle cx="783.6" cy="320.71" r="1"/>
            <circle cx="766.92" cy="288.03" r="1"/>
            <circle cx="746.91" cy="257.28" r="1.52"/>
            <circle cx="723.8" cy="228.78" r="1"/>
            <circle cx="697.84" cy="202.86" r="1"/>
            <circle cx="669.32" cy="179.79" r="1"/>
            <circle cx="638.53" cy="159.83" r="1"/>
            <circle cx="605.83" cy="143.2" r="1"/>
            <circle cx="571.57" cy="130.08" r="1"/>
            <circle cx="536.13" cy="120.61" r="1"/>
            <circle cx="499.89" cy="114.89" r="1"/>
        </g>
        <g class="arcs">
            <path d="M59.46 476.47c-.13-4.31-.21-8.64-.21-13a403 403 0 0 1 118.4-285.82q3.51-3.5 7.09-6.91a1 1 0 0 1-.12-.23 4.53 4.53 0 0 1-.63-.45q-3.56 3.41-7 6.88A404.06 404.06 0 0 0 58.25 463.5q0 6.5.21 13a5.57 5.57 0 0 1 1-.03zM247 805A406.18 406.18 0 0 1 91 620.85q-5.65-13.36-10.31-27a6.52 6.52 0 0 1-.87.53Q84.48 608 90.1 621.27a407.26 407.26 0 0 0 156.36 184.55 5.32 5.32 0 0 1 .54-.82zM620.85 91a402.53 402.53 0 0 1 125.48 83.69c.26-.22.54-.41.81-.61a405.61 405.61 0 0 0-441.38-84q-18.15 7.66-35.34 17a5.43 5.43 0 0 1 .4.93Q288 98.71 306.15 91a405.55 405.55 0 0 1 314.7 0zM868.25 442.76a402.17 402.17 0 0 0-17.42-98.94c-.27.24-.54.49-.82.72a401.44 401.44 0 0 1 17.24 98.13c.31.01.64.05 1 .09zM581.79 850.18a407.94 407.94 0 0 1-198.72 9.59 5 5 0 0 1-.28 1A409.11 409.11 0 0 0 582.6 851zM858.09 551.84a403.56 403.56 0 0 1-108.74 197.51q-7.38 7.38-15.08 14.32c.21.26.42.52.61.8q7.74-7 15.17-14.42a404.53 404.53 0 0 0 109-198.14c-.29-.01-.62-.04-.96-.07z"/>
        </g>
    </g>
</svg>